<svg xmlns="http://www.w3.org/2000/svg" viewBox="0 0 64.93 52.07"><defs><style>.cls-1{fill:#faf28c;}.cls-2,.cls-4{fill:none;}.cls-2,.cls-3{stroke:#231f20;}.cls-2,.cls-3,.cls-4{stroke-miterlimit:10;}.cls-3{fill:#231f20;}.cls-4{stroke:#58595b;}</style></defs><g id="Layer_2" data-name="Layer 2"><g id="Layer_1-2" data-name="Layer 1"><path class="cls-1" d="M2.89,0H62a2.89,2.89,0,0,1,2.89,2.89V36.32A15.75,15.75,0,0,1,49.18,52.07H2.89A2.89,2.89,0,0,1,0,49.18V2.89A2.89,2.89,0,0,1,2.89,0Z"/><rect class="cls-2" x="18.9" y="5.33" width="7" height="29.98"/><rect class="cls-2" x="42.83" y="5.33" width="7" height="35"/><line class="cls-2" x1="42.83" y1="40.33" x2="25.73" y2="15.32"/><line class="cls-2" x1="25.9" y1="5.33" x2="42.83" y2="30.09"/><polygon class="cls-3" points="25.58 35.31 23.07 41.15 19.22 35.31 25.58 35.31"/><path class="cls-4" d="M14.36,42.38c2.24-.1,2.34,1.89,4.58,1.79s2.14-2.1,4.38-2.21,2.34,1.89,4.58,1.79,2.15-2.11,4.39-2.21,2.34,1.89,4.58,1.79"/></g></g></svg>