<svg xmlns="http://www.w3.org/2000/svg" viewBox="0 0 144.95 174.07"><defs><style>.cls-1{fill:#2e3192;}.cls-1,.cls-10,.cls-11,.cls-2,.cls-3,.cls-4,.cls-5,.cls-6,.cls-7,.cls-8,.cls-9{stroke:#fff;stroke-miterlimit:10;stroke-width:0.75px;}.cls-2{fill:#603913;}.cls-3{fill:#754c29;}.cls-4{fill:#a97c50;}.cls-5{fill:#c49a6c;}.cls-6{fill:#231f20;}.cls-7{fill:#fff;}.cls-8{fill:#f5918f;}.cls-9{fill:#f16e8f;}.cls-10{fill:#f37268;}.cls-11{fill:#fabfbd;}</style></defs><g id="Layer_2" data-name="Layer 2"><g id="Layer_1-2" data-name="Layer 1"><path class="cls-1" d="M81.11,18.35,139.53,66c9.95,8.12,4.21,24.24-8.64,24.24H14.06C1.22,90.25-4.53,74.13,5.43,66L63.84,18.35A13.64,13.64,0,0,1,81.11,18.35Z"/><polygon class="cls-2" points="132.39 92.66 72.54 171.77 102.47 92.66 132.39 92.66"/><polygon class="cls-3" points="102.47 91.88 72.54 91.88 72.54 171.77 102.47 91.88"/><polygon class="cls-4" points="72.54 92.06 42.61 92.06 72.54 171.17 72.54 92.06"/><path class="cls-5" d="M12.69,92.66q25.77,34.08,51.56,68.15l8.29,11L42.61,92.66Z"/><path class="cls-6" d="M72.48,173.45,88.3,153c-5-2.67-10.66-4.58-15.82-4.58-5.39,0-10.65,1.91-15.83,4.58Z"/><path class="cls-7" d="M72.54,13.25,42.79,52.43,12.54,92.25h120q-29.28-38.55-60-79"/><polyline class="cls-8" points="72.54 13.3 72.54 92.21 102.47 92.21 72.54 13.3"/><polyline class="cls-9" points="72.61 13.26 12.61 92.25 43.47 92.25 72.61 13.26"/><polyline class="cls-10" points="72.61 13.26 132.61 92.25 102.54 92.17 72.61 13.26"/><polyline class="cls-11" points="72.54 13.3 72.54 92.21 42.61 92.21 72.54 13.3"/><circle class="cls-1" cx="72.61" cy="10.38" r="10"/></g></g></svg>