<svg id="Layer_1" data-name="Layer 1" xmlns="http://www.w3.org/2000/svg" xmlns:xlink="http://www.w3.org/1999/xlink" viewBox="0 0 110 110"><defs><style>.cls-1{fill:url(#Yellow_Orange_);}.cls-2{fill:url(#Yellow_Orange_2);}.cls-3{fill:url(#Yellow_Orange_3);}.cls-4{fill:none;stroke:#58595b;stroke-miterlimit:10;stroke-width:2px;}</style><linearGradient id="Yellow_Orange_" x1="105" y1="52.76" x2="5" y2="52.76" gradientUnits="userSpaceOnUse"><stop offset="0" stop-color="#fff33b"/><stop offset="0.04" stop-color="#fee72e"/><stop offset="0.12" stop-color="#fed51b"/><stop offset="0.2" stop-color="#fdca10"/><stop offset="0.28" stop-color="#fdc70c"/><stop offset="0.67" stop-color="#f3903f"/><stop offset="0.89" stop-color="#ed683c"/><stop offset="1" stop-color="#e93e3a"/></linearGradient><linearGradient id="Yellow_Orange_2" y1="11.61" x2="88.73" y2="11.61" xlink:href="#Yellow_Orange_"/><linearGradient id="Yellow_Orange_3" x1="21.21" y1="83.3" x2="5" y2="83.3" xlink:href="#Yellow_Orange_"/></defs><path class="cls-1" d="M5,82.07V13.33a8.35,8.35,0,0,1,8.44-8.26H23.77L45.12,29.2,66.47,53.32c4.94,5.59,9.33,10.89,13.29,16s7.46,10.08,10.62,15l.2-.07.19-.07c-.79-6.36-1.28-12.45-1.58-18.8s-.4-13-.4-20.39V15.19H105V91.93a8.59,8.59,0,0,1-8.69,8.5h-8.7L66.47,76.24,45.32,52.05c-4.65-5.31-9.19-10.69-13.42-16S23.78,25.38,20.42,20.21l-.3.07-.3.08c.5,6,.84,11.88,1.06,18.23s.33,13.17.33,21.1V82.07L13.1,100.45Z"/><path class="cls-2" d="M88.79,18.22,88.73,12c0-3.85,2.68-7,6-7h4.12c3.31,0,6,3.05,6,6.84l.07,6.38"/><path class="cls-3" d="M5,82.07l4,1.64a10.79,10.79,0,0,0,8.24,0l4-1.64"/><path class="cls-4" d="M6.6,102c2.64,0,2.64,2,5.29,2s2.64-2,5.28-2,2.65,2,5.29,2,2.65-2,5.29-2,2.65,2,5.29,2,2.64-2,5.29-2,2.64,2,5.29,2,2.65-2,5.3-2,2.64,2,5.29,2"/></svg>