<svg id="Layer_1" data-name="Layer 1" xmlns="http://www.w3.org/2000/svg" viewBox="0 0 48 48"><defs><style>.cls-1{fill:#231f20;}.cls-2{fill:none;stroke:#6d6e71;stroke-miterlimit:10;stroke-width:1.4px;}</style></defs><path class="cls-1" d="M10.33,39.82,6.88,34.44V5.24h7.24l14.2,16.67c1.64,1.91,3.07,3.71,4.39,5.48.69.94,1.35,1.86,2,2.78-.1-1.19-.18-2.4-.24-3.65-.09-2-.13-4.15-.13-7V5.24h6.81V39.16H34.33L20.25,22.44c-1.7-2-3.14-3.81-4.41-5.47-.95-1.26-1.8-2.43-2.56-3.55l.41,21ZM35,37.66h4.59V6.74H35.81V19.55c0,2.8,0,4.93.13,6.9.1,2.21.27,4.28.52,6.34l.07.58-1.13.43L35,33.33c-1.05-1.68-2.17-3.32-3.45-5s-2.71-3.52-4.32-5.41L13.43,6.74h-5V34l1.93,3,1.87-3L11.72,10.6l1.3-.32.29.46c1,1.64,2.25,3.38,3.73,5.32,1.25,1.64,2.67,3.41,4.36,5.42Z"/><path class="cls-2" d="M3.54,38.91c2.62,0,2.62,2,5.24,2s2.62-2,5.24-2,2.63,2,5.25,2,2.62-2,5.25-2,2.62,2,5.24,2"/></svg>